<svg width="750" height="750" viewBox="0 0 750 750" fill="none" xmlns="http://www.w3.org/2000/svg">
<path d="M735.575 341.475L408.2 14.125C399.45 5.4 387.375 0 374.025 0C360.675 0 348.6 5.4 339.85 14.125L272.025 82.075L358.25 168.3C363.75 166.375 370.075 165.275 376.675 165.275C408.4 165.275 434.1 190.975 434.1 222.7C434.1 229.425 432.95 235.85 430.825 241.85L430.95 241.45L514 324.55C519.55 322.575 525.975 321.425 532.65 321.425C564.35 321.425 590.05 347.125 590.05 378.825C590.05 410.525 564.35 436.225 532.65 436.225C500.95 436.225 475.25 410.525 475.25 378.825C475.25 371 476.825 363.55 479.65 356.75L479.5 357.125L401.75 279.775V483.625C420.85 493.25 433.725 512.7 433.725 535.15C433.725 566.9 407.975 592.65 376.225 592.65C344.475 592.65 318.725 566.9 318.725 535.15C318.725 519.3 325.125 504.975 335.5 494.575C340.775 489.3 347.05 485.025 354.025 482.025L354.4 481.875V276.025C333.35 267.175 318.85 246.7 318.85 222.875C318.85 214.875 320.475 207.275 323.425 200.35L323.275 200.725L238.55 115.6L14.05 339.95C5.35 348.725 0 360.8 0 374.15C0 387.5 5.375 399.575 14.075 408.35L341.475 735.65C350.2 744.4 362.275 749.8 375.625 749.8C388.975 749.8 401.025 744.4 409.775 735.65L735.625 409.8C744.375 401.075 749.8 388.975 749.8 375.65C749.8 362.325 744.375 350.225 735.625 341.5L735.575 341.475Z" fill="white"/>
</svg>
