<svg width="50" height="50" viewBox="0 0 50 50" fill="none" xmlns="http://www.w3.org/2000/svg">
<circle cx="25" cy="25" r="25" fill="#E8E8E8"/>
<path d="M36.8392 22.8558C36.2573 21.7549 34.2468 21.409 33.3244 21.2533C32.5974 21.1305 31.8552 21.0939 31.1199 21.0946C30.5425 21.0905 29.9736 21.1207 29.412 21.1546C29.205 21.1694 29.0001 21.1884 28.7953 21.2072C28.5855 20.9766 28.3826 20.7383 28.1863 20.4947C26.9373 18.9251 25.9289 17.145 25.1071 15.2953C25.3253 14.4016 25.4999 13.4688 25.6053 12.5001C25.7978 10.7321 25.8639 8.71724 25.2399 7.03165C25.0244 6.44989 24.4499 5.74164 23.7871 6.09433C23.0251 6.49991 22.8107 7.64902 22.7486 8.46358C22.6986 9.12198 22.7336 9.78208 22.8377 10.4295C22.9438 11.0812 23.1145 11.7001 23.3004 12.3182C23.4739 12.8849 23.6651 13.4471 23.8735 14.0041C23.7412 14.4426 23.6009 14.8734 23.4534 15.2933C23.1097 16.2501 22.7381 17.1591 22.3806 18.0335C22.1922 18.4671 22.0077 18.8915 21.8272 19.3064C21.2561 20.6383 20.636 21.9458 19.9401 23.2097C18.3169 23.8175 16.8603 24.5222 15.6506 25.3504C15.0017 25.7955 14.4285 26.2789 13.9511 26.8091C13.5003 27.3096 13.0423 27.9592 13.0022 28.6783C12.9797 29.0842 13.1311 29.4781 13.4443 29.7189C13.875 30.0606 14.4459 30.0378 14.9456 29.9266C16.5827 29.5621 17.8399 28.0681 18.9104 26.8089C19.6479 25.9416 20.4872 24.8403 21.3651 23.5084C21.3671 23.5054 21.369 23.5023 21.371 23.4993C22.8769 23.0037 24.5157 22.5852 26.255 22.2776C27.0496 22.1377 27.8653 22.0233 28.6973 21.9429C29.2823 22.5247 29.9145 23.0544 30.6041 23.4967C31.1413 23.8476 31.7126 24.1438 32.3105 24.3647C32.9152 24.5745 33.5236 24.7457 34.1518 24.8541C34.469 24.9022 34.7934 24.9241 35.1248 24.9109C35.8644 24.8812 36.9261 24.5801 36.9957 23.6273C37.0171 23.3357 36.9578 23.08 36.8392 22.8558ZM19.1315 24.604C18.7851 25.1737 18.4509 25.6861 18.1361 26.137C17.3652 27.2506 16.4847 28.5734 15.2098 29.068C14.9677 29.1619 14.6489 29.2589 14.3128 29.2379C14.0135 29.2192 13.7184 29.079 13.7319 28.7182C13.7386 28.5293 13.8257 28.2883 13.9592 28.0516C14.1054 27.792 14.2863 27.554 14.4823 27.3351C14.9022 26.8667 15.4331 26.4128 16.0438 25.9925C16.9806 25.3473 18.0989 24.7666 19.3455 24.2484C19.2738 24.3688 19.2022 24.4885 19.1315 24.604ZM23.4793 10.3169C23.3832 9.72104 23.3686 9.1169 23.4277 8.53599C23.4571 8.24553 23.5129 7.96203 23.5935 7.69633C23.6619 7.47081 23.8094 6.92042 24.0449 6.84971C24.433 6.73306 24.5523 7.61765 24.5962 7.86792C24.8463 9.29154 24.6259 10.8747 24.3258 12.2712C24.2781 12.4933 24.2249 12.7119 24.1704 12.9296C24.0775 12.6581 23.9888 12.3858 23.9072 12.1122C23.7315 11.5145 23.5708 10.9098 23.4793 10.3169ZM26.1439 21.5553C24.6857 21.8062 23.2985 22.135 21.9946 22.5231C22.1516 22.4765 22.869 21.033 23.0291 20.7334C23.7831 19.3235 24.3999 17.8438 24.8431 16.2915C25.6257 17.9347 26.5756 19.5067 27.7425 20.9059C27.85 21.0329 27.9592 21.1583 28.0704 21.2823C27.4165 21.3571 26.773 21.4481 26.1439 21.5553ZM36.0054 23.5381C35.9521 23.8442 35.3364 24.0192 35.0491 24.0673C34.2 24.2091 33.3018 24.0956 32.4891 23.8058C31.9315 23.6071 31.3938 23.3365 30.8828 23.011C30.3749 22.6852 29.8998 22.302 29.4556 21.8795C30.0033 21.8446 30.5577 21.8217 31.1147 21.8328C31.6718 21.8388 32.2332 21.8686 32.7878 21.9454C33.8277 22.0685 34.993 22.4475 35.8115 23.1639C35.9727 23.3051 36.0241 23.4299 36.0054 23.5381Z" fill="#006699"/>
<path d="M20.743 34.83C20.743 35.2993 20.633 35.7283 20.413 36.117C20.2003 36.4983 19.874 36.8063 19.434 37.041C19.0013 37.2683 18.4697 37.382 17.839 37.382H16.772V40H14.616V32.245H17.839C18.4623 32.245 18.9903 32.355 19.423 32.575C19.863 32.795 20.193 33.0993 20.413 33.488C20.633 33.8767 20.743 34.324 20.743 34.83ZM17.63 35.666C18.2387 35.666 18.543 35.3873 18.543 34.83C18.543 34.2653 18.2387 33.983 17.63 33.983H16.772V35.666H17.63ZM24.6782 32.245C25.4922 32.245 26.2035 32.41 26.8122 32.74C27.4282 33.0627 27.9012 33.5173 28.2312 34.104C28.5612 34.6907 28.7262 35.3617 28.7262 36.117C28.7262 36.865 28.5575 37.5323 28.2202 38.119C27.8902 38.7057 27.4172 39.1677 26.8012 39.505C26.1925 39.835 25.4848 40 24.6782 40H21.6092V32.245H24.6782ZM24.5132 38.097C25.1438 38.097 25.6388 37.9247 25.9982 37.58C26.3575 37.2353 26.5372 36.7477 26.5372 36.117C26.5372 35.479 26.3575 34.9877 25.9982 34.643C25.6388 34.291 25.1438 34.115 24.5132 34.115H23.7652V38.097H24.5132ZM34.956 32.245V33.961H31.854V35.325H34.142V36.964H31.854V40H29.698V32.245H34.956Z" fill="black"/>
</svg>
