<svg width="1466" height="1658" viewBox="0 0 1466 1658" fill="none" xmlns="http://www.w3.org/2000/svg">
<path d="M707.083 520.706C731.069 520.967 754.44 528.472 774.253 542.276C794.066 556.08 809.436 575.565 818.428 598.279C827.42 620.993 829.632 645.92 824.785 669.922C819.938 693.923 808.249 715.927 791.19 733.163C774.131 750.398 752.464 762.095 728.917 766.78C705.37 771.466 680.996 768.931 658.863 759.494C636.73 750.057 617.828 734.141 604.536 713.748C591.244 693.356 584.156 669.399 584.166 644.894C584.258 628.499 587.511 612.28 593.738 597.166C599.965 582.052 609.045 568.337 620.459 556.805C631.873 545.273 645.397 536.149 660.26 529.955C675.124 523.762 691.034 520.618 707.083 520.706ZM398.992 1174.2C439.67 1199.88 529.142 1162.33 634.228 1063.85C599.905 1023.11 567.602 980.648 537.443 936.609C485.078 930.041 433.097 920.609 381.723 908.353C347.03 1050.1 358.321 1147.85 398.992 1174.2ZM449.28 793.526L430.797 759.454C423.246 778.027 416.745 797.026 411.326 816.359C428.834 820.534 448.299 824.066 468.414 827.605L449.28 793.526ZM874.949 747.671L928.682 648.633L877.111 548.452C857.992 513.045 837.529 481.609 819.017 450.193C783.937 447.82 746.885 447.418 707.883 446.995C668.881 446.572 631.83 446.169 596.728 445.789C577.538 476.795 556.399 507.78 536.516 542.764L482.761 643.794L534.332 743.974C553.451 779.381 573.914 810.818 592.426 842.233C627.527 842.614 664.579 843.016 703.581 843.44C742.583 843.863 779.635 844.265 814.737 844.646C833.926 813.639 855.066 782.654 874.949 747.671ZM709.483 299.573C696.974 314.048 683.808 329.181 670.612 346.969L747.316 347.802C734.51 329.731 721.675 314.316 709.483 299.573ZM701.96 992.853C714.469 978.378 727.635 963.246 740.831 945.457L664.127 944.625C676.933 962.696 689.768 978.11 701.96 992.853ZM1011.8 118.223C971.773 92.5511 881.65 130.093 777.215 228.581C811.538 269.313 843.841 311.779 874 355.818C926.327 361.507 978.317 370.053 1029.75 381.417C1064.44 239.667 1053.15 141.916 1011.83 115.567M962.191 496.244L980.675 530.316C988.225 511.743 994.726 492.744 1000.15 473.411C982.638 469.236 963.173 465.704 943.058 462.165L962.191 496.244ZM1061.49 32.4238C1156.44 89.2419 1165.25 236.112 1122.44 406.996C1287 458.592 1405.06 542.891 1403.85 654.453C1402.64 766.016 1282.78 847.732 1117.13 895.745C1155.58 1067.51 1143.58 1214.16 1048.07 1268.91C952.562 1323.66 823.898 1258.5 700.41 1135.63C574.286 1255.8 444.238 1318.14 349.288 1261.32C254.339 1204.51 246.145 1060.96 288.342 886.752C123.775 835.155 5.71969 750.857 6.93032 639.294C8.14095 527.732 128.005 445.351 293.653 397.338C255.21 225.573 267.203 78.9281 362.713 24.1768C458.223 -30.5745 587.538 34.5862 711.025 157.464C837.15 37.2949 967.198 -25.0513 1061.5 31.7597M1035.94 649.797C1057.98 698.926 1077.4 749.242 1094.11 800.524C1231.07 760.169 1308.42 701.236 1308.95 652.759C1309.48 604.283 1231.47 543.664 1097.37 500.368C1079.55 551.274 1059.04 601.157 1035.94 649.797ZM375.505 642.63C353.46 593.5 334.04 543.184 317.331 491.903C180.37 532.258 103.018 591.191 102.492 639.667C101.966 688.144 179.971 748.763 314.074 792.059C331.892 741.153 352.399 691.27 375.505 642.63ZM958.905 799.056L939.037 832.712C959.188 832.931 978.761 826.502 996.355 822.708C991.357 803.262 985.27 784.126 978.124 765.394L958.905 799.056ZM766.185 1065.28C868.459 1166.01 959.695 1205.52 998.321 1180.7C1036.95 1155.88 1053.59 1060.43 1022 915.301C970.339 925.547 918.176 932.962 865.737 937.515C834.691 981.796 801.464 1024.44 766.185 1065.28ZM452.538 493.37L472.406 459.715C452.255 459.496 432.682 465.925 415.088 469.719C420.086 489.165 426.173 508.301 433.319 527.033L452.538 493.37ZM645.258 227.149C541.034 126.397 451.748 86.908 410.522 111.698C369.296 136.488 355.908 231.979 387.488 377.104C439.154 366.858 491.317 359.443 543.755 354.891C575.435 310.57 609.314 267.934 645.258 227.149Z" fill="white"/>
<path d="M268.476 1339.06L269.05 1629.97L228.709 1630.05L80.4192 1416.99L77.7203 1416.99L78.1409 1630.34L34.2489 1630.43L33.6755 1339.52L74.3004 1339.44L222.733 1552.79L225.431 1552.78L225.01 1339.15L268.476 1339.06ZM357.65 1629.79L311.059 1629.89L415.173 1338.77L465.883 1338.67L571.144 1629.37L524.553 1629.46L441.84 1391.56L439.567 1391.56L357.65 1629.79ZM365.238 1515.86L516.374 1515.56L516.447 1552.49L365.311 1552.79L365.238 1515.86ZM563.934 1376.26L563.859 1338.48L789.001 1338.03L789.075 1375.82L698.308 1376L698.807 1629.12L655.057 1629.21L654.558 1376.08L563.934 1376.26ZM882.644 1337.85L883.217 1628.76L839.325 1628.84L838.752 1337.94L882.644 1337.85ZM971.99 1337.67L1053.42 1574.44L1056.69 1574.44L1137.19 1337.35L1184.63 1337.25L1080.52 1628.37L1029.81 1628.47L924.547 1337.77L971.99 1337.67ZM1227.22 1628.08L1226.64 1337.17L1409.03 1336.81L1409.1 1374.6L1270.61 1374.87L1270.78 1463.5L1399.76 1463.25L1399.83 1500.89L1270.86 1501.15L1271.03 1590.21L1411.23 1589.93L1411.31 1627.72L1227.22 1628.08Z" fill="white"/>
</svg>
