<svg width="732" height="998" viewBox="0 0 732 998" fill="none" xmlns="http://www.w3.org/2000/svg">
<path d="M366.333 257.568C378.633 257.568 390.658 261.208 400.894 268.028C411.129 274.849 419.118 284.545 423.855 295.896C428.592 307.247 429.865 319.746 427.513 331.819C425.162 343.892 419.291 354.999 410.64 363.742C401.989 372.486 390.945 378.474 378.897 380.954C366.85 383.434 354.339 382.295 342.938 377.679C331.537 373.063 321.756 365.177 314.828 355.015C307.899 344.852 304.132 332.867 304 320.568C303.956 312.338 305.534 304.181 308.642 296.561C311.751 288.941 316.33 282.008 322.119 276.158C327.907 270.308 334.791 265.655 342.377 262.465C349.963 259.276 358.104 257.611 366.333 257.568ZM212 587.235C233 599.901 278.667 580.568 332 530.568C314.174 510.311 297.376 489.173 281.667 467.234C254.781 464.223 228.076 459.773 201.667 453.901C184.667 525.234 191 574.235 212 587.235ZM235.667 395.901L226 378.901C222.232 388.264 219.004 397.835 216.333 407.568C225.333 409.568 235.333 411.234 245.667 412.901L235.667 395.901ZM453.667 370.568L480.667 320.568L453.667 270.568C443.667 252.901 433 237.234 423.333 221.568C405.333 220.568 386.333 220.568 366.333 220.568C346.333 220.568 327.333 220.568 309.333 220.568C299.667 236.234 289 251.901 279 269.568L252 320.568L279 370.568C289 388.234 299.667 403.901 309.333 419.568C327.333 419.568 346.333 419.568 366.333 419.568C386.333 419.568 405.333 419.568 423.333 419.568C433 403.901 443.667 388.234 453.667 370.568ZM366.333 146.568C360 153.901 353.333 161.568 346.667 170.568H386C379.333 161.568 372.667 153.901 366.333 146.568ZM366.333 494.568C372.667 487.234 379.333 479.568 386 470.568H346.667C353.333 479.568 360 487.234 366.333 494.568ZM520.333 53.9011C499.667 41.2344 453.667 60.5678 400.667 110.568C418.492 130.824 435.291 151.962 451 173.901C477.862 176.472 504.566 180.477 531 185.901C548 114.568 541.667 65.5678 520.333 52.5678M497 243.901L506.667 260.901C510.435 251.538 513.662 241.967 516.333 232.234C507.333 230.234 497.333 228.568 487 226.901L497 243.901ZM545.333 10.5678C594.333 38.5678 599.667 112.234 578.667 198.234C663.333 223.234 724.333 264.901 724.333 320.901C724.333 376.901 663.333 418.568 578.667 443.568C599.333 529.568 594 603.234 545.333 631.234C496.667 659.234 430.333 627.235 366.333 566.235C302.333 627.235 236 659.234 187 631.234C138 603.234 133 531.234 153.667 443.568C69 418.568 8 376.901 8 320.901C8 264.901 69 222.901 153.667 197.901C133 111.901 138.333 38.2344 187 10.2344C235.667 -17.7656 302.333 14.2344 366.333 75.2344C430.333 14.2344 496.667 -17.7656 545.333 10.2344M535.667 320.568C547.243 345.106 557.481 370.254 566.333 395.901C636.333 374.901 675.667 344.901 675.667 320.568C675.667 296.234 635.333 266.234 566.333 245.234C557.481 270.882 547.243 296.03 535.667 320.568ZM197 320.568C185.423 296.03 175.186 270.882 166.333 245.234C96.3333 266.234 57 296.234 57 320.568C57 344.901 97.3333 374.901 166.333 395.901C175.186 370.254 185.423 345.106 197 320.568ZM497 395.901L487 412.901C497.333 412.901 507.333 409.568 516.333 407.568C513.662 397.835 510.435 388.264 506.667 378.901L497 395.901ZM399.667 530.568C452.667 580.568 499.667 599.901 519.333 587.235C539 574.568 547 526.568 530 453.901C503.566 459.325 476.862 463.33 450 465.901C434.328 488.295 417.528 509.878 399.667 530.568ZM235.667 245.234L245.667 228.234C235.333 228.234 225.333 231.568 216.333 233.568C219.004 243.3 222.232 252.872 226 262.234L235.667 245.234ZM333 110.568C279 60.5678 233 41.2344 212 53.9011C191 66.5678 184.667 114.568 201.667 187.234C228.1 181.811 254.805 177.805 281.667 175.234C297.664 152.817 314.797 131.234 333 110.568Z" fill="white"/>
<path d="M133.476 810.725L133.763 956.179L113.592 956.219L39.4476 849.688L38.0982 849.691L38.3085 956.367L16.3625 956.41L16.0758 810.956L36.3882 810.916L110.604 917.588L111.954 917.585L111.743 810.767L133.476 810.725ZM178.063 956.092L154.768 956.137L206.825 810.58L232.18 810.53L284.81 955.881L261.515 955.927L220.158 836.974L219.022 836.976L178.063 956.092ZM181.857 899.124L257.425 898.975L257.462 917.441L181.894 917.59L181.857 899.124ZM281.205 829.325L281.168 810.433L393.738 810.212L393.776 829.104L348.392 829.193L348.642 955.755L326.767 955.798L326.517 829.236L281.205 829.325ZM440.56 810.119L440.847 955.573L418.901 955.617L418.614 810.162L440.56 810.119ZM485.233 810.031L525.95 928.417L527.583 928.414L567.833 809.868L591.554 809.822L539.497 955.379L514.142 955.429L461.512 810.078L485.233 810.031ZM612.846 955.234L612.559 809.78L703.752 809.6L703.789 828.492L634.542 828.629L634.63 872.947L699.118 872.82L699.155 891.641L634.667 891.768L634.754 936.299L704.854 936.161L704.891 955.053L612.846 955.234Z" fill="white"/>
</svg>
