<svg width="800" height="483" viewBox="0 0 800 483" fill="none" xmlns="http://www.w3.org/2000/svg">
<path d="M188.766 125.877H339.654V137.87H202.598V228.131H331.481V240.124H202.598V339.221H341.225V351.214H188.766V125.877ZM353.171 125.877H369.202L440.245 224.975L512.86 125.877L611.627 0L449.361 235.39L532.978 351.214H516.318L440.245 245.804L363.858 351.214H347.512L431.758 235.39L353.171 125.877ZM538.951 137.87V125.877H710.899V137.87H631.683V351.214H617.852V137.87H538.951ZM0 125.877H17.2892L255.697 482.631L157.174 351.214L14.46 142.919L13.8313 351.214H0V125.877ZM709.506 335.602C706.68 335.602 704.561 333.413 704.561 330.583C704.561 327.754 706.68 325.564 709.506 325.564C712.365 325.564 714.451 327.754 714.451 330.583C714.451 333.413 712.365 335.602 709.506 335.602ZM723.097 322.398H730.498C730.599 326.406 733.525 329.101 737.831 329.101C742.642 329.101 745.367 326.204 745.367 320.781V286.422H752.903V320.815C752.903 330.583 747.251 336.209 737.899 336.209C729.118 336.209 723.097 330.752 723.097 322.398ZM762.759 321.96H770.228C770.867 326.575 775.375 329.505 781.868 329.505C787.923 329.505 792.364 326.373 792.364 322.061C792.364 318.356 789.538 316.132 783.112 314.617L776.855 313.101C768.075 311.046 764.071 306.802 764.071 299.661C764.071 291.004 771.136 285.243 781.733 285.243C791.59 285.243 798.789 291.004 799.226 299.189H791.893C791.186 294.709 787.284 291.913 781.632 291.913C775.678 291.913 771.708 294.776 771.708 299.155C771.708 302.625 774.265 304.612 780.589 306.094L785.938 307.408C795.896 309.732 800 313.775 800 321.084C800 330.381 792.801 336.209 781.296 336.209C770.531 336.209 763.298 330.651 762.759 321.96Z" fill="white"/>
</svg>
