<svg width="717" height="642" viewBox="0 0 717 642" fill="none" xmlns="http://www.w3.org/2000/svg">
<path d="M358.333 257.568C370.633 257.568 382.658 261.208 392.894 268.028C403.129 274.849 411.118 284.545 415.855 295.896C420.592 307.247 421.865 319.746 419.513 331.819C417.162 343.892 411.291 354.999 402.64 363.742C393.989 372.486 382.945 378.474 370.897 380.954C358.85 383.434 346.339 382.295 334.938 377.679C323.537 373.063 313.756 365.177 306.828 355.015C299.899 344.852 296.132 332.867 296 320.568C295.956 312.338 297.534 304.181 300.642 296.561C303.751 288.941 308.33 282.008 314.119 276.158C319.907 270.308 326.791 265.655 334.377 262.465C341.963 259.276 350.104 257.611 358.333 257.568ZM204 587.235C225 599.901 270.667 580.568 324 530.568C306.174 510.311 289.376 489.173 273.667 467.234C246.781 464.223 220.076 459.773 193.667 453.901C176.667 525.234 183 574.235 204 587.235ZM227.667 395.901L218 378.901C214.232 388.264 211.004 397.835 208.333 407.568C217.333 409.568 227.333 411.234 237.667 412.901L227.667 395.901ZM445.667 370.568L472.667 320.568L445.667 270.568C435.667 252.901 425 237.234 415.333 221.568C397.333 220.568 378.333 220.568 358.333 220.568C338.333 220.568 319.333 220.568 301.333 220.568C291.667 236.234 281 251.901 271 269.568L244 320.568L271 370.568C281 388.234 291.667 403.901 301.333 419.568C319.333 419.568 338.333 419.568 358.333 419.568C378.333 419.568 397.333 419.568 415.333 419.568C425 403.901 435.667 388.234 445.667 370.568ZM358.333 146.568C352 153.901 345.333 161.568 338.667 170.568H378C371.333 161.568 364.667 153.901 358.333 146.568ZM358.333 494.568C364.667 487.234 371.333 479.568 378 470.568H338.667C345.333 479.568 352 487.234 358.333 494.568ZM512.333 53.9011C491.667 41.2344 445.667 60.5678 392.667 110.568C410.492 130.824 427.291 151.962 443 173.901C469.862 176.472 496.566 180.477 523 185.901C540 114.568 533.667 65.5678 512.333 52.5678M489 243.901L498.667 260.901C502.435 251.538 505.662 241.967 508.333 232.234C499.333 230.234 489.333 228.568 479 226.901L489 243.901ZM537.333 10.5678C586.333 38.5678 591.667 112.234 570.667 198.234C655.333 223.234 716.333 264.901 716.333 320.901C716.333 376.901 655.333 418.568 570.667 443.568C591.333 529.568 586 603.234 537.333 631.234C488.667 659.234 422.333 627.235 358.333 566.235C294.333 627.235 228 659.234 179 631.234C130 603.234 125 531.234 145.667 443.568C61 418.568 0 376.901 0 320.901C0 264.901 61 222.901 145.667 197.901C125 111.901 130.333 38.2344 179 10.2344C227.667 -17.7656 294.333 14.2344 358.333 75.2344C422.333 14.2344 488.667 -17.7656 537.333 10.2344M527.667 320.568C539.243 345.106 549.481 370.254 558.333 395.901C628.333 374.901 667.667 344.901 667.667 320.568C667.667 296.234 627.333 266.234 558.333 245.234C549.481 270.882 539.243 296.03 527.667 320.568ZM189 320.568C177.423 296.03 167.186 270.882 158.333 245.234C88.3333 266.234 49 296.234 49 320.568C49 344.901 89.3333 374.901 158.333 395.901C167.186 370.254 177.423 345.106 189 320.568ZM489 395.901L479 412.901C489.333 412.901 499.333 409.568 508.333 407.568C505.662 397.835 502.435 388.264 498.667 378.901L489 395.901ZM391.667 530.568C444.667 580.568 491.667 599.901 511.333 587.235C531 574.568 539 526.568 522 453.901C495.566 459.325 468.862 463.33 442 465.901C426.328 488.295 409.528 509.878 391.667 530.568ZM227.667 245.234L237.667 228.234C227.333 228.234 217.333 231.568 208.333 233.568C211.004 243.3 214.232 252.872 218 262.234L227.667 245.234ZM325 110.568C271 60.5678 225 41.2344 204 53.9011C183 66.5678 176.667 114.568 193.667 187.234C220.1 181.811 246.805 177.805 273.667 175.234C289.664 152.817 306.797 131.234 325 110.568Z" fill="white"/>
</svg>
