<svg width="700" height="420" viewBox="0 0 700 420" fill="none" xmlns="http://www.w3.org/2000/svg">
<path d="M175 140C198.333 46.6667 256.667 0 350 0C490 0 507.5 105 577.5 122.5C624.167 134.167 665 116.667 700 70C676.667 163.333 618.333 210 525 210C385 210 367.5 105 297.5 87.5C250.833 75.8333 210 93.3333 175 140ZM0 350C23.3333 256.667 81.6667 210 175 210C315 210 332.5 315 402.5 332.5C449.167 344.167 490 326.667 525 280C501.667 373.333 443.333 420 350 420C210 420 192.5 315 122.5 297.5C75.8333 285.833 35 303.333 0 350Z" fill="white"/>
</svg>
